<?xml version="1.0" standalone="no"?>
<!DOCTYPE svg PUBLIC "-//W3C//DTD SVG 20010904//EN"
 "http://www.w3.org/TR/2001/REC-SVG-20010904/DTD/svg10.dtd">
<svg version="1.0" xmlns="http://www.w3.org/2000/svg"
 width="1415.000000pt" height="1415.000000pt" viewBox="0 0 1415.000000 1415.000000"
 preserveAspectRatio="xMidYMid meet">
<metadata>
Created by potrace 1.11, written by Peter Selinger 2001-2013
</metadata>
<g transform="translate(0.000000,1415.000000) scale(0.100000,-0.100000)"
fill="#000000" stroke="none">
<path d="M7831 9809 c-31 -4 -51 -14 -68 -34 l-24 -27 -877 -2 -877 -2 -52
-27 c-121 -63 -167 -144 -188 -334 -8 -70 -17 -144 -19 -163 -3 -19 -10 -75
-16 -125 -6 -49 -13 -101 -15 -115 -2 -14 -4 -35 -4 -47 -1 -18 -7 -23 -26
-23 -14 0 -48 -9 -75 -19 -40 -15 -69 -19 -138 -15 -139 6 -190 21 -365 104
-152 72 -177 79 -212 56 l-26 -17 6 -257 c4 -141 8 -313 10 -382 2 -69 4 -137
4 -151 1 -30 36 -50 75 -43 15 2 108 46 207 96 124 63 196 94 230 98 27 4 49
4 50 1 1 -3 2 -267 4 -586 2 -319 5 -589 8 -601 25 -102 99 -169 207 -189 27
-5 591 -10 706 -6 16 1 20 7 19 34 0 17 5 49 12 71 7 21 13 39 13 40 0 1 -163
3 -363 4 -213 0 -374 5 -390 11 -14 6 -31 20 -37 32 -17 30 -20 1543 -4 1559
8 8 353 11 1249 11 1347 0 1273 3 1294 -54 5 -12 8 -353 8 -757 0 -615 -2
-738 -14 -756 -27 -41 -61 -47 -299 -47 -206 0 -224 -1 -224 -17 0 -35 -48
-33 -78 2 -6 8 -30 15 -53 16 l-41 3 6 -58 c3 -32 7 -67 9 -77 3 -18 16 -19
308 -19 322 1 365 6 431 48 63 42 92 89 93 153 l1 57 47 -3 c66 -4 117 12 165
54 50 42 70 103 71 207 0 38 2 71 5 74 3 3 59 6 125 5 156 0 178 -10 325 -154
61 -60 129 -120 151 -133 43 -26 86 -37 102 -27 7 5 10 210 9 637 l-1 630 -37
-1 c-49 -2 -106 -32 -222 -118 -154 -115 -166 -120 -324 -120 l-134 -1 -2 70
c-2 76 -20 121 -64 162 -49 45 -136 68 -194 52 l-28 -8 -1 77 c-1 42 -2 84 -3
92 -2 8 -3 22 -4 31 -3 23 -77 97 -110 111 -15 6 -45 13 -67 16 -22 3 -453 6
-958 6 l-918 1 7 65 c3 36 8 72 9 80 2 8 6 42 9 75 4 33 9 69 11 80 2 11 4 26
4 33 1 9 154 12 731 12 l729 0 31 -30 c17 -16 41 -31 53 -31 12 -1 270 -2 572
-3 559 -2 613 1 680 36 90 48 156 156 158 261 3 167 -111 293 -282 313 -77 8
-1048 11 -1110 3z"/>
<path d="M7037 8723 c-1 -1 -317 -4 -702 -6 -385 -3 -701 -6 -703 -6 -2 -1 0
-268 4 -593 3 -326 7 -666 8 -755 0 -89 3 -164 6 -167 3 -2 179 -6 391 -7
l386 -2 24 22 c72 68 194 86 279 42 32 -17 45 -20 48 -11 10 29 80 95 120 113
47 20 119 29 128 15 3 -4 -12 -8 -33 -8 -73 -1 -164 -61 -195 -130 -14 -31
-23 -37 -33 -20 -4 6 -25 20 -48 31 -69 36 -168 23 -235 -30 -60 -47 -96 -148
-73 -204 10 -26 26 -4 35 46 8 45 64 111 106 126 17 5 30 6 30 2 0 -4 -11 -82
-24 -172 -13 -90 -27 -191 -31 -224 -3 -33 -8 -79 -11 -103 -16 -124 -18 -269
-5 -317 6 -22 24 -61 40 -87 31 -48 42 -62 149 -182 130 -146 170 -296 138
-521 -3 -22 -13 -89 -21 -150 -17 -123 -20 -137 -34 -215 -6 -30 -17 -93 -26
-140 -8 -47 -17 -96 -20 -110 -13 -66 -37 -221 -42 -276 -16 -179 111 -324
299 -339 96 -8 216 56 273 145 63 99 62 151 -10 580 -2 14 -7 43 -10 65 -3 22
-8 51 -10 65 -3 14 -7 41 -10 60 -3 19 -7 46 -10 60 -7 36 -12 72 -30 195 -9
61 -18 121 -21 135 -3 14 -7 62 -9 108 -7 130 10 162 221 417 108 131 139 215
129 340 -4 39 -7 77 -7 85 -1 24 -17 181 -22 220 -3 19 -8 58 -11 85 -3 28 -8
64 -10 80 -3 17 -7 42 -9 56 -2 15 -7 53 -11 85 -4 33 -9 67 -11 77 -11 38 88
5 137 -47 37 -40 53 -33 30 12 -44 84 -110 123 -202 117 -64 -4 -104 -21 -146
-64 l-29 -29 -23 50 c-22 48 -87 108 -118 108 -7 0 -13 4 -13 10 0 17 63 -17
102 -56 21 -21 41 -48 44 -61 l6 -23 32 27 c45 38 91 54 151 54 68 0 117 -21
170 -74 l42 -43 246 -2 245 -1 -2 772 -2 772 -528 0 c-290 0 -528 -1 -529 -2z
m131 -1500 c9 -14 24 -32 32 -41 8 -10 15 -28 14 -42 -1 -38 7 -45 22 -19 13
24 13 24 15 -11 7 -184 3 -456 -8 -481 -13 -30 -48 -45 -85 -35 -45 11 -51 37
-54 248 -1 109 -6 202 -9 208 -3 5 -1 10 4 10 6 0 11 -15 11 -32 0 -31 2 -33
32 -31 18 1 45 2 61 2 25 1 27 4 27 41 0 33 -3 40 -19 40 -15 0 -21 8 -23 32
-3 31 -6 33 -45 36 -33 2 -42 -1 -46 -15 -3 -10 -6 8 -7 40 -2 63 -3 95 -1
101 3 11 63 -28 79 -51z m-241 40 c-3 -5 -8 -73 -12 -153 -18 -366 -24 -461
-30 -481 -8 -25 -61 -44 -93 -33 -46 16 -52 44 -46 209 2 82 4 160 4 173 0 21
4 23 43 22 106 -4 103 -6 106 53 1 28 4 60 7 70 7 21 -17 32 -51 23 -21 -5
-25 -12 -25 -41 0 -39 -23 -48 -46 -17 -12 15 -14 13 -15 -18 -1 -19 -2 -41
-2 -47 1 -7 -3 -13 -8 -13 -5 0 -8 31 -6 70 1 38 5 70 9 70 4 0 16 -12 27 -26
l20 -26 7 29 c11 47 42 100 70 122 26 21 49 28 41 14z"/>
<path d="M7103 7213 c2 -22 8 -27 30 -28 31 -2 34 6 10 27 -35 29 -42 30 -40
1z"/>
<path d="M6876 7211 c-14 -16 -15 -19 -2 -24 9 -4 16 3 19 19 5 29 5 29 -17 5z"/>
<path d="M6502 7117 c-30 -31 -60 -102 -49 -114 9 -8 68 -6 76 3 12 13 24 144
14 144 -5 0 -24 -15 -41 -33z"/>
</g>
</svg>
